<!DOCTYPE svg PUBLIC "-//W3C//DTD SVG 1.1//EN" "http://www.w3.org/Graphics/SVG/1.1/DTD/svg11.dtd">

<!-- Uploaded to: SVG Repo, www.svgrepo.com, Transformed by: SVG Repo Mixer Tools -->
<svg fill="#972020" height="800px" width="800px" version="1.1" id="Capa_1" xmlns="http://www.w3.org/2000/svg" xmlns:xlink="http://www.w3.org/1999/xlink" viewBox="-2.55 -2.55 30.63 30.63" xml:space="preserve" transform="matrix(-1, 0, 0, 1, 0, 0)rotate(0)" stroke="#972020">

<g id="SVGRepo_bgCarrier" stroke-width="0" transform="translate(0,0), scale(1)">

<path transform="translate(-2.55, -2.55), scale(0.9571875)" d="M16,27.49598141866071C18.043868482930673,27.2113938566428,20.002272120177512,26.95178068148668,21.976819603038685,26.352155220136652C24.446951517000528,25.602031963359572,27.469013472129035,25.575504367967376,29.04837715969751,23.533484065639122C30.623319891485885,21.49717978776408,30.45374545270482,18.53097914589119,29.98350691369602,16C29.55040070409998,13.668879316539748,28.028536643545692,11.75554470618498,26.520226882660204,9.926144177360197C25.192378538868635,8.315621905790923,23.587921284224223,7.031120191892747,21.75915928504297,6.0248435094235315C19.958548993014062,5.034057309855748,17.978784845626254,4.692603478538518,16,4.137387077723231C13.314529550540055,3.3838856342789945,10.550893799257778,1.008566384162124,8.01422205514142,2.1682268615419567C5.544587975898557,3.297240515725237,5.8303144579518715,6.994000500667039,4.533093327029693,9.379578345588268C3.2766519255974305,11.690162639391605,0.601224071376754,13.372131033614274,0.4928291014262598,15.999999999999996C0.38427794850879826,18.631655381679327,2.4665158591316194,20.783332618581955,3.9736078753434345,22.94344073055045C5.376590596131777,24.954329464301523,6.685079134284205,27.29401568591002,8.978222417512104,28.162075532317186C11.215163008892052,29.00886008362612,13.63100424845359,27.825839592507915,16,27.49598141866071" fill="#7eaeec" strokewidth="0"/>

</g>

<g id="SVGRepo_tracerCarrier" stroke-linecap="round" stroke-linejoin="round" stroke="#CCCCCC" stroke-width="2.655224"> <g> <g id="c179_text"> <path d="M25.198,6.273c-0.014,0.23-0.045,0.389-0.087,0.467c-0.045,0.084-0.176,0.145-0.392,0.183 c-0.469,0.104-0.781-0.074-0.935-0.533C23.239,4.7,22.59,3.578,21.84,3.016c-1.041-0.773-2.862-1.161-5.469-1.161 c-1.054,0-1.633,0.115-1.734,0.343c-0.036,0.075-0.057,0.184-0.057,0.324v18.999c0,0.812,0.188,1.383,0.571,1.709 c0.382,0.32,1.069,0.731,2.201,0.999c0.483,0.103,0.97,0.2,1.034,0.239c0.46,0,0.504,1.057-0.376,1.057 c-0.025,0.016-10.375-0.008-10.375-0.008s-0.723-0.439-0.074-1.023c0.271-0.121,0.767-0.343,0.767-0.343s1.83-0.614,2.211-1.009 c0.434-0.445,0.648-1.164,0.648-2.154V2.521c0-0.369-0.229-0.585-0.687-0.647c-0.049-0.015-0.425-0.02-1.122-0.02 c-2.415,0-4.191,0.418-5.338,1.259C3.176,3.735,2.411,4.877,1.737,6.545C1.52,7.065,1.22,7.234,0.84,7.058 C0.408,6.957,0.251,6.719,0.363,6.353c0.445-1.374,0.668-3.31,0.668-5.814c0-0.292,0.387-0.586,1.163-0.533L23.56,0.064 c0.709-0.104,1.096,0.012,1.16,0.343C25.076,2.096,25.234,4.052,25.198,6.273z"/> </g> <g id="Capa_1_282_"> </g> </g> </g>

<g id="SVGRepo_iconCarrier"> <g> <g id="c179_text"> <path d="M25.198,6.273c-0.014,0.23-0.045,0.389-0.087,0.467c-0.045,0.084-0.176,0.145-0.392,0.183 c-0.469,0.104-0.781-0.074-0.935-0.533C23.239,4.7,22.59,3.578,21.84,3.016c-1.041-0.773-2.862-1.161-5.469-1.161 c-1.054,0-1.633,0.115-1.734,0.343c-0.036,0.075-0.057,0.184-0.057,0.324v18.999c0,0.812,0.188,1.383,0.571,1.709 c0.382,0.32,1.069,0.731,2.201,0.999c0.483,0.103,0.97,0.2,1.034,0.239c0.46,0,0.504,1.057-0.376,1.057 c-0.025,0.016-10.375-0.008-10.375-0.008s-0.723-0.439-0.074-1.023c0.271-0.121,0.767-0.343,0.767-0.343s1.83-0.614,2.211-1.009 c0.434-0.445,0.648-1.164,0.648-2.154V2.521c0-0.369-0.229-0.585-0.687-0.647c-0.049-0.015-0.425-0.02-1.122-0.02 c-2.415,0-4.191,0.418-5.338,1.259C3.176,3.735,2.411,4.877,1.737,6.545C1.52,7.065,1.22,7.234,0.84,7.058 C0.408,6.957,0.251,6.719,0.363,6.353c0.445-1.374,0.668-3.31,0.668-5.814c0-0.292,0.387-0.586,1.163-0.533L23.56,0.064 c0.709-0.104,1.096,0.012,1.16,0.343C25.076,2.096,25.234,4.052,25.198,6.273z"/> </g> <g id="Capa_1_282_"> </g> </g> </g>

</svg>